<?xml version="1.0" encoding="utf-8"?>
<!-- Generator: Adobe Illustrator 26.2.1, SVG Export Plug-In . SVG Version: 6.00 Build 0)  -->
<svg version="1.0" id="Layer_1" xmlns="http://www.w3.org/2000/svg" xmlns:xlink="http://www.w3.org/1999/xlink" x="0px" y="0px"
	 viewBox="0 0 4815.5 1668.2" style="enable-background:new 0 0 4815.5 1668.2;" xml:space="preserve">
<style type="text/css">
	.st0{fill:#231F20;}
</style>
<path class="st0" d="M2476.5,1217.6h75.2c-10,30.1-33,44.6-74.3,44.6c-45.4,0-79.6-26-79.6-76.7c0-29.8,15.9-75.2,83.1-75.2
	c49.3,0,60.8,25.4,65.8,36.2h42.8c-10.3-53.9-64.3-72.2-113.5-72.2c-85.5,0-120,55.8-120,112.9c0,85.2,66.3,112,121.2,112
	c41.6,0,64-14.4,80.2-25l8.3,22.1h25.4v-112.4h-114.5L2476.5,1217.6z M2040,1074.3c-94.4,0-127.7,55.4-127.7,114.1
	c0,44.6,26.2,110.9,127.7,110.9c101.4,0,127.7-66.3,127.7-110.9C2167.7,1129.8,2134.4,1074.3,2040,1074.3z M2040,1263.3
	c-40.1,0-85.8-16.5-85.8-77.2c0-51.6,36.9-75.8,85.8-75.8c48.9,0,85.8,24.2,85.8,75.8C2125.8,1246.8,2080.1,1263.3,2040,1263.3z
	 M1110.1,479.3H995.2v470.2h374.2v-87.2h-259.3L1110.1,479.3z M2305.2,806.5l-165.7-327.1h-150.9v470.2h114.9V636.1l163.6,313.4h76
	l163.3-313.1v313.1h115.4V479.3h-151.3L2305.2,806.5z M1573.4,1079.6h-41.9V1294h197.3v-37.2h-155.4V1079.6z M3834.8,479.3v87.5
	h199.7v382.7h114.9V566.8h202.3v-87.5H3834.8z M3671.1,783.6L3384,479.3h-114.9v470.2H3384V645.3l287.4,304.3h114.3V479.3h-114.6
	L3671.1,783.6z M2799.8,1294h41.9v-214.4h-41.9V1294z M3169.2,1263.3c-46,0-81.7-25.9-81.7-75.2c0-44.6,24.8-77.8,84-77.8
	c50.1,0,66.6,30.4,69,37.7h41.9c-3.3-11.5-17.4-73.7-113.2-73.7c-85.3,0-124.5,46.6-124.5,109.1c0,78.2,53.3,115.9,121.2,115.9
	c98.5,0,115.6-57.8,119.7-81.7h-41.9C3239.7,1234.1,3218.1,1263.3,3169.2,1263.3z M915.7,664.4H582.8v-97.6h332.7v-87.5H467.9v470.2
	h446.9v-87.1h-332V751.8h332.9v-1.9h0.2V666h-0.2L915.7,664.4L915.7,664.4z M1886.8,664.4h-332.9v-97.6h332.7v-87.5H1439v470.2
	h446.9v-87.1h-332V751.8h332.9v-1.9h0.2V666h-0.2V664.4z M3176.5,862.4h-332V751.8h332.9v-1.9h0.2V666h-0.2v-1.6h-332.9v-97.6h332.7
	v-87.5h-447.6v470.2h446.9L3176.5,862.4L3176.5,862.4z"/>
</svg>
