<?xml version="1.0" encoding="utf-8"?>
<!-- Generator: Adobe Illustrator 26.2.1, SVG Export Plug-In . SVG Version: 6.00 Build 0)  -->
<svg version="1.0" id="Layer_1" xmlns="http://www.w3.org/2000/svg" xmlns:xlink="http://www.w3.org/1999/xlink" x="0px" y="0px"
	 viewBox="0 0 5669.3 2338.6" style="enable-background:new 0 0 5669.3 2338.6;" xml:space="preserve">
<style type="text/css">
	.st0{fill:#BE2126;}
	.st1{fill:#FFFFFF;}
</style>
<rect y="0" class="st0" width="5669.3" height="2338.6"/>
<path class="st1" d="M2464.9,1317.2c-94.4,0-127.7,55.4-127.7,114.1c0,44.6,26.2,110.9,127.7,110.9c101.4,0,127.7-66.3,127.7-110.9
	C2592.6,1372.7,2559.2,1317.2,2464.9,1317.2z M2464.9,1506.2c-40.1,0-85.8-16.5-85.8-77.2c0-51.6,36.9-75.8,85.8-75.8
	c48.9,0,85.8,24.2,85.8,75.8C2550.6,1489.7,2504.9,1506.2,2464.9,1506.2z M2901.4,1460.5h75.1c-10,30.1-33,44.6-74.3,44.6
	c-45.4,0-79.6-26-79.6-76.7c0-29.8,15.9-75.2,83.1-75.2c49.3,0,60.8,25.4,65.8,36.2h42.8c-10.3-53.9-64.3-72.2-113.5-72.2
	c-85.5,0-120,55.8-120,112.9c0,85.2,66.3,112,121.2,112c41.6,0,64-14.4,80.2-25l8.3,22.1h25.4v-112.4h-114.5V1460.5z M1998.2,1322.5
	h-41.9v214.4h197.3v-37.2h-155.4V1322.5z M1534.9,722.2h-114.9v470.2h374.2v-87.2h-259.3V722.2z M4095.9,1026.5l-287.1-304.3h-114.9
	v470.2h114.9V888.2l287.4,304.3h114.3V722.2h-114.6V1026.5z M3594.1,1506.2c-46,0-81.7-25.9-81.7-75.2c0-44.6,24.8-77.8,84-77.8
	c50.1,0,66.6,30.4,69,37.7h41.9c-3.3-11.5-17.4-73.7-113.2-73.7c-85.3,0-124.5,46.6-124.5,109.1c0,78.2,53.3,115.9,121.2,115.9
	c98.5,0,115.6-57.8,119.7-81.7h-41.9C3664.6,1477,3642.9,1506.2,3594.1,1506.2z M2730.1,1049.4l-165.7-327.1h-150.9v470.2h114.9V879
	l163.6,313.4h76l163.3-313.1v313.1h115.4V722.2h-151.3L2730.1,1049.4z M4259.6,722.2v87.5h199.7v382.7h114.9V809.7h202.3v-87.5
	H4259.6z M3224.6,1536.9h41.9v-214.4h-41.9V1536.9z M1340.6,907.3h-332.9v-97.6h332.7v-87.5H892.8v470.2h446.9v-87.1h-332V994.7
	h332.9v-1.9h0.2v-83.9h-0.2V907.3z M2311.6,907.3h-332.9v-97.6h332.7v-87.5h-447.6v470.2h446.9v-87.1h-332V994.7h332.9v-1.9h0.2
	v-83.9h-0.2V907.3z M3601.4,1105.3h-332V994.7h332.9v-1.9h0.2v-83.9h-0.2v-1.6h-332.9v-97.6h332.7v-87.5h-447.6v470.2h446.9V1105.3z
	"/>
</svg>
